<svg id="Layer_1" data-name="Layer 1" xmlns="http://www.w3.org/2000/svg" viewBox="0 0 51.48 49.48"><title>admiral</title><path d="M50.9-.15h-.24c-2.31,7.69-2.93,17.07-9.36,20.64-1.19-3.36-4.11-4.89-7.44-6.36-2.12-.94-4.55-2.56-6.6-2.64a2.22,2.22,0,0,0-1.5.31,2.18,2.18,0,0,0-1.5-.31c-2.06.08-4.49,1.7-6.6,2.64-3.33,1.47-6.25,3-7.44,6.36C3.78,16.92,3.16,7.54.86-.15H.62A14,14,0,0,0,0,2.25C0,4.17.56,23.71,1.94,30.69,3.18,37,8,41.52,12.74,44.49c3.29,2.07,8.5,4.84,13,4.84s9.73-2.77,13-4.84c4.72-3,9.56-7.51,10.8-13.8C51,23.71,51.5,4.17,51.5,2.25A15,15,0,0,0,50.9-.15ZM37,27.9c-.25,1.56-1.66,3.39-3.36,3.48-3,.17-4.51-4.41-7.86-4.38s-4.88,4.55-7.86,4.38c-1.7-.09-3.12-1.92-3.36-3.48a7.58,7.58,0,0,1,1.68-5.64c1.1-1.06,2.82-.93,4.68-1.2a8.6,8.6,0,0,0,4.86-1.94h0a8.6,8.6,0,0,0,4.86,1.94c1.86.27,3.57.14,4.68,1.2A7.58,7.58,0,0,1,37,27.9Z" transform="translate(-0.02 0.15)"/></svg>