<svg id="Layer_2" data-name="Layer 2" xmlns="http://www.w3.org/2000/svg" viewBox="0 0 141.67 139.54"><defs><style>.cls-1{fill:#262424;}</style></defs><title>clock</title><path class="cls-1" d="M162.5,283.19V262.73a1,1,0,0,0-2,0v20.46l1,0Z" transform="translate(-90.67 -261.73)"/><path class="cls-1" d="M136.44,290.17c.56-.35,1.15-.68,1.73-1l-10.24-17.7a1,1,0,0,0-1.73,1Z" transform="translate(-90.67 -261.73)"/><path class="cls-1" d="M101.17,296.46a1,1,0,0,0,.36,1.36l17.68,10.27c.33-.58.66-1.16,1-1.73l-17.67-10.27A1,1,0,0,0,101.17,296.46Z" transform="translate(-90.67 -261.73)"/><path class="cls-1" d="M197.08,270.25a1,1,0,0,0-1.37.36l-10.8,18.6c.58.33,1.16.66,1.73,1l10.8-18.59A1,1,0,0,0,197.08,270.25Z" transform="translate(-90.67 -261.73)"/><path class="cls-1" d="M222.45,297.4a1,1,0,0,0,.37-1.37,1,1,0,0,0-1.37-.36l-18.61,10.77c.34.56.67,1.14,1,1.73Z" transform="translate(-90.67 -261.73)"/><path class="cls-1" d="M113.17,331.5c0-.33,0-.67,0-1H91.67a1,1,0,0,0,0,2h21.52C113.19,332.17,113.17,331.84,113.17,331.5Z" transform="translate(-90.67 -261.73)"/><path class="cls-1" d="M231.33,330.5H209.81c0,.33,0,.67,0,1s0,.67,0,1h21.52a1,1,0,1,0,0-2Z" transform="translate(-90.67 -261.73)"/><path class="cls-1" d="M221.47,365.18l-17.68-10.27c-.32.58-.65,1.16-1,1.73l17.68,10.27a1,1,0,0,0,1.36-.36A1,1,0,0,0,221.47,365.18Z" transform="translate(-90.67 -261.73)"/><path class="cls-1" d="M100.55,365.6a1,1,0,0,0-.36,1.37,1,1,0,0,0,.86.5.9.9,0,0,0,.5-.14l18.62-10.76c-.35-.57-.68-1.15-1-1.74Z" transform="translate(-90.67 -261.73)"/><path class="cls-1" d="M186.57,372.83c-.57.35-1.15.68-1.74,1l10.24,17.7a1,1,0,0,0,.87.5.93.93,0,0,0,.5-.14,1,1,0,0,0,.36-1.36Z" transform="translate(-90.67 -261.73)"/><path class="cls-1" d="M125.56,391.38a1,1,0,0,0,.36,1.37,1,1,0,0,0,.51.14,1,1,0,0,0,.86-.5l10.8-18.6c-.58-.33-1.16-.65-1.73-1Z" transform="translate(-90.67 -261.73)"/><path class="cls-1" d="M160.5,379.81v20.46a1,1,0,0,0,2,0V379.81l-1,0Z" transform="translate(-90.67 -261.73)"/><path class="cls-1" d="M195.41,313.62a1.5,1.5,0,0,0-1.5-2.6l-28.43,16.45h0a5.65,5.65,0,0,0-7.95,0l-20.34-11.82a1.5,1.5,0,0,0-1.51,2.6L156,330.06a5.66,5.66,0,1,0,11.14,1.44,5.61,5.61,0,0,0-.19-1.43ZM166,328.08,166,328Zm.4.59,0,0Zm-9.78-.05,0,0Zm.42-.62-.05.07Zm4.45,6.17a2.67,2.67,0,1,1,2.67-2.67A2.67,2.67,0,0,1,161.5,334.17Z" transform="translate(-90.67 -261.73)"/></svg>