<svg id="Layer_1" data-name="Layer 1" xmlns="http://www.w3.org/2000/svg" viewBox="0 0 57.68 68.64"><title>lumberjack</title><path d="M51.44,22.52c.12-1.7.47-3.51.72-5.4.7-5.43,1.6-11.67-.12-16.8H51.8c-1.32,3.74-1.26,8.35-2.16,12.36a19.62,19.62,0,0,1-3.24,7.56c-.53.69-1.06,1.55-1.92,1.8-.66-3.92-4.28-4.94-7.68-6.36-2.13-.89-4-2-6.12-2.16a11.27,11.27,0,0,0-2,.23,11.27,11.27,0,0,0-2-.23c-2.15.14-4,1.27-6.12,2.16-3.39,1.42-7,2.44-7.68,6.36-.86-.25-1.39-1.11-1.92-1.8a19.93,19.93,0,0,1-3.24-7.56c-.9-4-.83-8.62-2.16-12.36H5.32C3.61,5.45,4.5,11.69,5.2,17.12c.25,1.89.6,3.7.72,5.4C6.71,33.57-1,45.64-.08,51.44.85,59,8.32,60.84,14.08,63.8c4.35,2.24,8.31,5,13.32,5.16H30c5-.21,9-2.93,13.32-5.16C49,60.83,56.51,59,57.44,51.44,58.39,45.64,50.65,33.57,51.44,22.52ZM28.68,26.26h0a35.83,35.83,0,0,1-7.16-.5c.67-2.05,4-1.56,7.08-1.56h.16c3,0,6.42-.49,7.08,1.56A35.78,35.78,0,0,1,28.68,26.26Z" transform="translate(0.16 -0.32)"/></svg>