<svg id="Layer_1" data-name="Layer 1" xmlns="http://www.w3.org/2000/svg" viewBox="0 0 44.66 104.78"><title>sage</title><path d="M43.65-.11h-.12c-2.81,21.53-5.38,22.56-7,22.68-1.42.11-3.64-1.77-4.92-2.52a15.9,15.9,0,0,0-9.06-2.54,15.93,15.93,0,0,0-9.06,2.54c-1.28.75-3.49,2.63-4.92,2.52s-4.14-1.15-7-22.68H1.53C-.54,12.1,0,50.09,2.73,63.49,5.34,82,12.84,98.6,16.17,103.09c.68,1,3.53,1.57,6.42,1.58s5.74-.54,6.42-1.58C32.34,98.6,39.84,82,42.45,63.49,45.21,50.09,45.72,12.1,43.65-.11ZM22.59,28a99.28,99.28,0,0,0-10.14.53c1.13-1.75,9-3.24,10.14-3.45,1.15.21,9,1.7,10.14,3.45A99.13,99.13,0,0,0,22.59,28Z" transform="translate(-0.26 0.11)"/></svg>